<!DOCTYPE svg PUBLIC "-//W3C//DTD SVG 20010904//EN" "http://www.w3.org/TR/2001/REC-SVG-20010904/DTD/svg10.dtd">
<svg version="1.0" xmlns="http://www.w3.org/2000/svg" width="960px" height="960px" viewBox="0 0 9600 9600" preserveAspectRatio="xMidYMid meet">
<g id="layer101" fill="#000000" stroke="none">
 <path d="M2470 5925 c0 -1196 -2 -2175 -4 -2175 -3 0 -198 126 -433 279 l-428 279 -36 -56 c-19 -32 -212 -329 -428 -662 -217 -332 -395 -610 -398 -616 -2 -6 375 -258 861 -573 475 -309 866 -566 868 -570 2 -5 365 -83 808 -174 628 -128 807 -161 815 -152 24 30 247 101 410 131 139 25 441 25 580 0 164 -30 386 -101 410 -131 9 -10 116 9 535 95 289 59 651 133 805 165 154 31 282 60 285 64 3 4 396 260 873 570 488 317 866 569 864 575 -3 6 -181 284 -398 616 -216 333 -409 630 -428 662 l-36 56 -435 -284 -435 -283 -3 2179 -2 2180 -2325 0 -2325 0 0 -2175z"/>
 </g>
<g id="layer102" fill="#ffffff" stroke="none">
 <path d="M2547 8023 c-4 -3 -7 -64 -7 -135 l0 -128 2255 0 2256 0 -3 133 -3 132 -2246 3 c-1235 1 -2249 -1 -2252 -5z"/>
 <path d="M2543 5688 l3 -1993 46 -130 c52 -145 86 -289 120 -505 18 -122 22 -187 22 -405 1 -232 -1 -272 -22 -372 -23 -114 -78 -286 -114 -356 -10 -21 -17 -42 -14 -45 4 -3 266 -59 584 -124 317 -65 589 -120 603 -123 23 -5 27 -2 38 37 40 132 159 318 285 444 142 142 301 227 499 268 102 21 320 21 423 0 227 -46 419 -171 565 -367 64 -85 148 -244 175 -332 10 -30 23 -55 30 -55 21 0 1225 248 1231 253 2 3 -5 23 -15 44 -36 70 -91 242 -114 356 -21 100 -23 140 -22 372 0 218 4 283 22 405 33 207 67 356 118 507 l44 132 0 1991 0 1990 -2255 0 -2255 0 3 -1992z"/>
 <path d="M1612 4172 c-61 -86 -762 -1173 -762 -1181 0 -9 153 -111 167 -111 7 0 717 1116 760 1194 10 19 4 25 -67 73 l-79 52 -19 -27z"/>
 <path d="M7888 4146 l-77 -52 382 -607 c210 -334 385 -607 390 -607 14 0 167 102 167 111 0 10 -755 1177 -773 1195 -9 9 -31 -1 -89 -40z"/>
 <path d="M1471 3439 c-211 -336 -382 -611 -380 -613 2 -2 320 -208 707 -459 l704 -457 38 83 c103 220 147 525 121 827 -24 275 -68 505 -137 712 l-35 107 -315 205 c-173 114 -316 206 -317 206 -1 -1 -175 -275 -386 -611z"/>
 <path d="M7425 3845 l-310 -203 -32 -89 c-96 -268 -163 -714 -150 -993 11 -216 55 -413 127 -567 l38 -83 704 457 c387 251 705 457 707 459 4 4 -762 1223 -769 1223 -3 0 -144 -92 -315 -204z"/>
 <path d="M4637 2315 c-281 -53 -504 -216 -664 -483 -59 -98 -106 -212 -90 -217 31 -11 142 -33 148 -29 4 2 9 17 12 34 4 17 22 63 42 103 102 209 284 358 511 418 110 29 288 29 398 0 258 -69 466 -261 547 -506 20 -60 11 -58 136 -30 l22 5 -18 53 c-89 259 -282 484 -504 588 -146 68 -374 95 -540 64z"/>
 <path d="M4655 2076 c-186 -44 -333 -141 -441 -292 -37 -52 -101 -174 -91 -174 2 0 36 11 76 25 103 36 253 71 365 85 144 19 463 8 590 -20 80 -17 242 -64 304 -87 20 -8 -32 101 -82 171 -91 128 -223 225 -371 272 -100 32 -259 41 -350 20z"/>
 </g>

</svg>